<?xml version="1.0" encoding="UTF-8"?>
<svg id="uuid-e6e13937-99b4-48bb-82ba-e6122fbb2b99" xmlns="http://www.w3.org/2000/svg" viewBox="0 0 1000 1000">
    <defs>
        <style>
        .uuid-26383752-df6a-4f47-90b6-3e5c38b28b59 {
            fill: #fdbe4d;
            rx: 15%;
        }

        .uuid-d49b16ac-a3bc-40b2-9d05-4ca3f00cbf78 {
            fill: #191919;
            fill-rule: evenodd;
        }
        </style>
    </defs>
    <rect class="uuid-26383752-df6a-4f47-90b6-3e5c38b28b59" width="1000" height="1000"/>
    <path class="uuid-d49b16ac-a3bc-40b2-9d05-4ca3f00cbf78" style="stroke:none; fill-rule:nonzero; fill:rgb(0%,0%,0%); fill-opacity:1;" d="M 262.269531 275.046875 C 223.054688 278.242188 187.964844 292.640625 158.566406 317.5 C 153.519531 321.757812 142.640625 332.546875 139.351562 336.527344 C 138.195312 337.871094 136.898438 339.445312 136.390625 340 C 135.925781 340.507812 135 341.714844 134.304688 342.59375 C 133.65625 343.472656 133.007812 344.304688 132.824219 344.445312 C 132.59375 344.675781 129.445312 348.890625 126.574219 352.871094 C 123.472656 357.222656 117.546875 367.269531 114.257812 373.84375 C 106.34375 389.535156 101.109375 405.140625 97.917969 422.453125 C 97.269531 426.019531 96.667969 429.214844 96.527344 429.535156 C 96.34375 430 93.519531 430.09375 83.101562 430 C 70.183594 429.859375 69.859375 429.859375 69.628906 430.785156 C 69.535156 431.296875 69.492188 442.546875 69.535156 455.785156 L 69.675781 479.859375 L 83.148438 480 L 96.621094 480.09375 L 97.59375 486.019531 C 101.019531 505.878906 108.65625 527.128906 118.285156 543.75 C 122.453125 550.972656 122.824219 551.480469 126.34375 556.714844 C 134.953125 569.304688 146.019531 581.667969 157.917969 591.898438 C 186.527344 616.527344 221.527344 631.25 259.722656 634.675781 C 266.480469 635.324219 284.351562 635.324219 290.972656 634.722656 C 321.714844 631.898438 349.492188 622.175781 375.230469 605.183594 C 378.566406 602.964844 381.480469 601.019531 381.714844 600.832031 C 381.992188 600.601562 383.933594 599.074219 386.109375 597.359375 C 416.019531 573.84375 437.316406 542.777344 448.101562 506.898438 C 453.285156 489.582031 455.554688 474.027344 455.554688 455.417969 C 455.554688 450.417969 455.742188 446.296875 455.925781 446.296875 C 456.15625 446.296875 456.757812 445.878906 457.316406 445.371094 C 460.464844 442.453125 471.480469 436.296875 477.128906 434.351562 C 494.027344 428.519531 511.757812 428.796875 528.054688 435.183594 C 533.148438 437.175781 539.257812 440.417969 542.640625 442.871094 L 544.769531 444.398438 L 545.046875 456.574219 C 545.464844 473.933594 546.757812 484.257812 550.464844 499.167969 C 556.109375 521.851562 565.785156 542.40625 579.816406 561.574219 C 587.175781 571.621094 597.40625 582.824219 605.785156 590.046875 C 607.546875 591.574219 609.445312 593.195312 609.953125 593.65625 C 611.527344 595.09375 621.390625 602.546875 623.609375 603.980469 C 624.769531 604.722656 625.785156 605.417969 625.925781 605.554688 C 626.480469 606.15625 633.054688 610.140625 638.332031 613.054688 C 658.378906 624.027344 678.609375 630.648438 701.945312 633.890625 C 708.566406 634.816406 711.433594 634.953125 725.464844 634.953125 C 742.453125 634.953125 745.878906 634.675781 759.257812 632.175781 C 787.453125 626.898438 813.378906 615 836.992188 596.621094 C 843.84375 591.25 844.816406 590.417969 852.777344 582.40625 C 860.742188 574.492188 861.480469 573.609375 866.945312 566.667969 C 879.167969 551.109375 888.472656 534.398438 895.140625 515.972656 C 898.796875 505.972656 902.59375 490.832031 903.519531 482.964844 L 903.84375 480.09375 L 930.554688 480.09375 L 930.554688 430.09375 L 903.84375 430.09375 L 903.566406 427.316406 C 902.59375 418.378906 897.824219 400.601562 893.054688 388.285156 C 891.019531 383.148438 884.445312 369.628906 881.992188 365.507812 C 881.203125 364.214844 880.09375 362.316406 879.535156 361.203125 C 878.980469 360.140625 878.332031 359.257812 878.148438 359.257812 C 877.964844 359.257812 877.777344 359.027344 877.777344 358.796875 C 877.777344 358.007812 870.140625 347.082031 866.621094 342.824219 C 850.925781 323.75 836.804688 311.480469 816.433594 299.304688 C 808.148438 294.304688 794.492188 287.871094 786.804688 285.371094 C 785.785156 285.046875 783.378906 284.214844 781.480469 283.566406 C 777.777344 282.269531 775.507812 281.621094 768.519531 279.859375 C 743.609375 273.519531 715.601562 272.964844 689.257812 278.242188 C 673.285156 281.433594 657.683594 286.945312 642.824219 294.628906 C 632.640625 299.90625 626.527344 303.703125 616.992188 310.832031 C 591.574219 329.859375 570.507812 356.945312 558.65625 385.878906 C 555.507812 393.609375 550.464844 408.84375 550.464844 410.648438 C 550.464844 412.035156 549.90625 411.992188 546.621094 410.324219 C 538.890625 406.433594 528.007812 403.007812 517.59375 401.15625 C 511.945312 400.140625 498.609375 399.769531 491.757812 400.417969 C 479.074219 401.667969 466.714844 405.277344 454.953125 411.203125 C 452.964844 412.175781 451.15625 412.871094 450.925781 412.730469 C 450.742188 412.59375 450.417969 411.804688 450.230469 410.972656 C 447.59375 398.148438 438.609375 376.34375 430.464844 362.964844 C 427.128906 357.546875 423.101562 351.296875 422.730469 350.925781 C 422.59375 350.785156 421.714844 349.628906 420.878906 348.378906 C 420 347.082031 419.167969 345.972656 418.980469 345.832031 C 418.84375 345.695312 417.824219 344.398438 416.714844 342.917969 C 413.796875 339.074219 410.371094 335.277344 404.445312 329.214844 C 393.242188 317.777344 382.871094 309.398438 370.371094 301.714844 C 353.890625 291.527344 337.546875 284.582031 319.675781 280.140625 C 301.15625 275.507812 279.816406 273.609375 262.269531 275.046875 Z M 296.667969 306.433594 C 323.378906 310.554688 346.109375 320.324219 367.359375 336.757812 C 373.285156 341.34375 386.34375 353.75 389.214844 357.546875 C 390 358.609375 391.066406 359.90625 391.527344 360.417969 C 398.101562 367.546875 409.121094 386.203125 414.074219 398.425781 C 424.121094 423.519531 427.359375 450.832031 423.378906 477.453125 C 420.09375 499.535156 411.15625 521.898438 398.242188 540.507812 C 385.554688 558.703125 367.683594 575 348.703125 585.648438 C 338.007812 591.621094 324.121094 597.269531 312.730469 600.183594 C 290.046875 606.019531 265.785156 606.390625 242.453125 601.34375 C 226.621094 597.871094 209.769531 591.019531 195.925781 582.316406 C 190.972656 579.214844 184.722656 574.859375 183.054688 573.378906 C 182.730469 573.148438 180.601562 571.34375 178.285156 569.445312 C 168.933594 561.757812 158.007812 549.535156 150.371094 538.195312 C 120.601562 493.933594 116.851562 436.296875 140.695312 388.378906 C 152.453125 364.769531 169.582031 345.230469 191.433594 330.507812 C 205.878906 320.742188 221.714844 313.703125 238.609375 309.492188 C 246.15625 307.640625 249.675781 306.992188 260.417969 305.554688 C 262.222656 305.324219 269.722656 305.230469 277.082031 305.324219 C 287.640625 305.464844 291.804688 305.695312 296.667969 306.433594 Z M 746.757812 306.390625 C 770.140625 309.953125 791.15625 318.195312 810.183594 331.203125 C 812.082031 332.5 813.890625 333.703125 814.121094 333.933594 C 822.175781 340.140625 825.648438 343.195312 831.757812 349.257812 C 836.480469 354.027344 840.925781 358.980469 843.378906 362.269531 C 843.933594 363.054688 845.230469 364.675781 846.203125 365.972656 C 853.195312 375.183594 861.621094 390.554688 865.695312 401.757812 C 869.214844 411.390625 870.277344 415 872.222656 424.304688 C 874.535156 435.507812 875.140625 441.667969 875.183594 454.628906 C 875.230469 469.351562 874.257812 477.871094 870.972656 490.972656 C 866.066406 510.695312 858.101562 527.640625 845.507812 544.859375 C 838.519531 554.492188 824.722656 568.148438 814.351562 575.742188 C 779.722656 601.109375 735.554688 610.601562 693.980469 601.574219 C 661.25 594.492188 632.5 577.175781 610.601562 551.390625 C 608.933594 549.492188 606.945312 547.035156 606.109375 545.972656 C 604.121094 543.378906 596.757812 532.40625 596.25 531.25 C 596.019531 530.742188 595.371094 529.582031 594.859375 528.703125 C 590.742188 521.898438 585.464844 509.816406 582.40625 500.230469 C 578.148438 486.804688 576.066406 474.351562 575.601562 459.257812 C 574.769531 431.25 581.109375 405.695312 595.277344 380.324219 C 596.851562 377.453125 597.59375 376.25 601.066406 371.066406 C 611.757812 355.046875 627.316406 339.769531 643.84375 329.027344 C 646.480469 327.316406 648.703125 325.925781 648.84375 325.925781 C 648.980469 325.925781 649.953125 325.371094 650.972656 324.722656 C 652.035156 324.074219 655.507812 322.222656 658.75 320.648438 C 675.832031 312.128906 692.824219 307.359375 713.195312 305.371094 C 714.214844 305.277344 720.785156 305.277344 727.777344 305.324219 C 737.777344 305.417969 741.851562 305.648438 746.757812 306.390625 Z M 746.757812 306.390625 "></path>
</svg>
